<?xml version="1.0" encoding="utf-8"?>
<!-- Generator: Adobe Illustrator 16.2.1, SVG Export Plug-In . SVG Version: 6.00 Build 0)  -->
<!DOCTYPE svg PUBLIC "-//W3C//DTD SVG 1.1//EN" "http://www.w3.org/Graphics/SVG/1.1/DTD/svg11.dtd">
<svg version="1.1" id="Layer_1" xmlns="http://www.w3.org/2000/svg" xmlns:xlink="http://www.w3.org/1999/xlink" x="0px" y="0px"
	 width="247px" height="518px" viewBox="0 0 247 518" enable-background="new 0 0 247 518" xml:space="preserve">
<path fill="#FEFEFE" d="M12.968,224.012l-0.015-0.031c-0.093,0.893-0.09,1.737,1.015,2.031l-0.015-0.031
	c-0.093,0.892-0.09,1.737,1.015,2.031l-0.015-0.031c-0.093,0.893-0.09,1.737,1.015,2.031c0,0-0.016-0.031-0.016-0.03
	c-0.146,1.18-0.088,2.288,1.06,3.012c0.062,1.655-0.038,3.281-0.861,4.776c-0.366,2.902,2.456,4.402,2.953,7.115
	c1.906,10.403,0.867,20.281-3.991,29.721c-3.877,7.536-4.617,8.766,2.711,15.638c5.819,5.458,9.19,12.182,9.037,20.054
	c-0.198,10.146,2.225,18.66,10.823,24.956c4.398,3.22,7.339,7.576,6.36,13.599c-0.192,1.184-0.319,2.501,1.655,2.999
	c6.929,1.747,10.322,6.261,11.422,13.452c1.185,7.745,3.956,14.922,11.921,18.764c3.31,1.598,2.688,4.935,0.929,7.201
	c-3.44,4.434-1.546,8.246,1.341,11.31c6.11,6.481,11.274,13.948,19.033,18.81c2.047,1.282,3.141,3.527,2.553,6.051
	c-0.798,3.425,1,4.438,3.889,4.657c1.674,1.613,1.005,3.714,1.218,5.647c0.41,3.724-1.044,7.585,0.84,11.193
	c3.312,5.604,9.11,4.537,14.131,4.9c6.416,0.465,12.538,0.39,17.605,5.727c3.254,3.425,7.958,5.22,13.137,4.425
	c1.237-0.19,3.113-0.382,3.355,1.302c0.795,5.522,3.946,7.074,9.229,7.066c1.999-0.003,4.157,2.485,5.964,4.142
	c2.564,2.351,4.884,4.97,7.284,7.497c2.754,2.901,5.087,5.954,5.701,10.166c0.396,2.724,1.588,5.329,2.395,7.996
	c0.702,2.32,2.19,2.862,4.553,2.635c12.253-1.178,24.265-4.567,36.702-4.022c5.113,0.085,10.256,0.415,15.081-1.849l-0.033,0.021
	c0.896,0.087,1.704,0.008,1.99-1.055l-0.013,0.012c0.614-0.044,1.043-0.285,1.049-0.979l-0.026,0.024
	c1.828,0.285,2.088-1.14,2.445-2.34c0.322-1.081-0.449-1.355-1.326-1.438c-3.697-2.815-7.323-6.624-4.71-11.007
	c2.268-3.804,2.438-7.716,3.351-11.552c1.14-4.783,2.257-9.243,6.642-12.191c1.388-0.934,2.622-2.298,0.557-3.975
	c-4.105-3.332-5.129-8.387-6.865-12.95c-1.533-4.03-3.729-7.511-7.153-9.915c-2.482-1.743-4.667-3.708-6.705-5.873
	c-18.146-19.27-38.072-36.693-57.188-54.951c-16.131-15.407-33.086-29.953-49.678-44.878c-0.841-0.757-1.432-1.894-2.806-1.853
	c-1.889,0.057-3.243-0.554-3.489-2.681c-0.267-2.304-0.103-4.351,2.594-5.143c2.704-0.7,1.294-2.867,1.3-4.264
	c0.096-24.138,0.213-48.277-0.054-72.413c-0.053-4.778,1.486-5.698,5.87-5.645c18.809,0.224,37.621,0.015,56.432,0.167
	c3.505,0.028,4.969-0.578,4.909-4.567c-0.254-17.143-0.152-34.291-0.18-51.436c-0.327-2.722,0.618-5.2,1.514-7.674
	c0.994-2.743,0.286-4.75-2.212-6.333c-4.969-3.15-5.657-6.359-2.511-11.206c1.95-3.002,4.246-5.716,5.542-9.199
	c2.732-7.342,4.916-14.928,8.776-21.806c0.917-1.634,0.196-2.279-0.588-3.695c-2.166-3.913-6.413-6.299-7.635-10.805
	c0.093-1.242,0.589-2.61-1.036-3.315c-1.251-3.567-0.707-7.559-2.595-10.975c1.435-1.37,0.794-3.139,0.797-4.719
	c0.043-25.946-0.072-51.894,0.131-77.839c0.034-4.322-0.973-5.601-5.473-5.583C131.031,5.07,86.456,4.999,41.881,5
	c-0.998,0-1.997,0.001-2.994,0.018c-0.683,0.012-1.478,0.14-1.012,1.033c0.249,0.476,1.048,0.664,1.599,0.982
	c2.794,2.345,5.589,4.691,8.385,7.035c-0.323,0.615-0.646,1.229-0.969,1.845c-1.379,0.797-2.333,2.165-4.31,2.1
	c-3.486-0.115-2.869,1.701-1.428,3.726c1.615,2.271,4.102,3.184,6.513,2.845c3.032-0.426,1.832-3.776,2.854-5.67
	c2.387-0.797,4.846-1.959,6.445,1.264c-0.229,1.223,0.388,3.707-0.725,3.475c-5.005-1.04-3.669,3.924-5.555,5.198
	c-2.806,1.896-1.385,11.756-9.032,5.328c-0.387-0.326-1.837,0.396-2.667,0.856c-2.168,1.201-4.371,0.802-6.697,0.672
	c-7.897-0.44-15.051-3.074-21.821-6.91c-2.211-1.252-2.712-0.664-3.788,1.572c-2.634,5.478,0.516,9.625,2.35,14.147
	c-0.002,0.703,0.101,1.341,0.944,1.519l-0.022-0.031c-0.09,0.892-0.089,1.738,1.02,2.026L10.958,48
	c-0.097,0.895-0.096,1.739,1.014,2.03L11.958,50c-0.097,0.895-0.096,1.739,1.013,2.03L12.957,52
	c-0.097,0.895-0.096,1.739,1.014,2.03l-0.013-0.031c0.077,1.937-0.415,3.968,0.94,5.694c0.909,8.848,3.861,17.314,4.761,26.197
	c0.342,3.374-0.705,7.043,1.393,10.196c1.738,2.581-1.632,5.716,0.89,8.212c-0.058,6.12,0.544,12.199,0.944,18.298
	c0.781,11.915-2.581,23.517-3.554,35.327c-0.432,5.241,0.354,10.542-1.085,15.788c-0.497,1.81-2.71,2.979-1.753,5.349
	c1.345,3.332-0.008,6.409-1.299,9.498c-1.774,4.241-3.302,8.576-3.236,13.282c-1.188,0.777-1.076,1.962-0.987,3.14l0.019-0.034
	c-1.115,0.288-1.08,1.154-1.019,2.032l0.02-0.033c-2.061,1.366-2.864,2.712,0.068,3.993l-0.03-0.025
	c0.297,1.002,1.017,1.249,1.96,1.097l-0.025-0.028c0.369,3.344-4.543,6.69,0.006,10.032l-0.016-0.031
	C11.86,222.873,11.863,223.718,12.968,224.012z"/>
<path fill="#FEFEFE" d="M151.945,483.589c-0.276-0.86-0.455-1.456-0.659-2.042c-1.071-3.088-3.801-3.13-6.361-3.325
	c-0.354-0.026-1.213,1.051-1.105,1.298c1.041,2.386,2.735,4.093,5.488,4.316C150.087,483.898,150.888,483.697,151.945,483.589z"/>
<path fill="#FEFEFE" d="M41.417,357.604c1.021,1.741,0.786,4.478,3.533,4.619c0.438,0.022,1.362-0.908,1.313-1.307
	C45.942,358.251,43.222,358.554,41.417,357.604z"/>
<path fill-rule="evenodd" clip-rule="evenodd" fill="#6B79FD" d="M11.958,201.84c-0.066-4.706,1.462-9.041,3.236-13.282
	c1.292-3.088,2.644-6.166,1.299-9.498c-0.957-2.37,1.256-3.539,1.753-5.349c1.439-5.247,0.653-10.547,1.085-15.788
	c0.974-11.81,4.335-23.412,3.554-35.327c-0.399-6.1-1.001-12.178-0.944-18.301c-1.383-5.112,5.695-2.441,5.74-6.574
	c-2.164-0.488-4.78,0.227-6.63-1.635c-2.098-3.153-1.051-6.822-1.393-10.196c-0.899-8.883-3.852-17.35-4.76-26.194
	c0.908-2.098,0.71-4.018-0.941-5.697l0.013,0.031c0.077-0.884-0.141-1.621-1.014-2.03l0.014,0.03
	c0.077-0.883-0.141-1.621-1.013-2.03l0.014,0.03c0.077-0.884-0.141-1.621-1.014-2.03l0.014,0.03c0.076-0.885-0.141-1.623-1.02-2.026
	l0.022,0.031c-0.314-0.506-0.629-1.013-0.944-1.519c-1.834-4.523-4.983-8.67-2.35-14.147c1.076-2.236,1.577-2.825,3.788-1.572
	c6.77,3.836,13.923,6.47,21.821,6.91c2.327,0.13,4.529,0.528,6.697-0.672c0.83-0.46,2.28-1.183,2.667-0.856
	c7.646,6.429,6.226-3.432,9.032-5.328c1.886-1.274,0.55-6.238,5.555-5.198c1.113,0.231,0.496-2.252,0.725-3.477
	c0.063-1.104,0.247-3.001-0.866-2.856c-3.493,0.453-5.252-2.862-8.239-3.251c-2.795-2.344-5.59-4.69-8.384-7.034
	c1.346-1.963,3.367-0.983,5.036-0.986c43.281-0.062,86.563,0.023,129.843-0.157c4.587-0.02,5.762,1.195,5.734,5.75
	c-0.164,27.129,0.006,54.261,0.062,81.391c1.888,3.417,1.344,7.408,2.596,10.975c0.103,2.956-2.18,1.909-3.543,1.932
	c-6.139,0.107-12.281,0.047-18.422,0.048c-8.059,0-16.116,0-24.174,0c1.79,1,3.584,0.988,5.378,1.002
	c13.932,0.108,27.864,0.222,41.796,0.333c1.222,4.506,5.469,6.893,7.635,10.805c0.784,1.416,1.505,2.061,0.588,3.695
	c-3.86,6.878-6.044,14.464-8.776,21.806c-1.296,3.483-3.592,6.196-5.542,9.199c-3.146,4.846-2.458,8.056,2.511,11.206
	c2.498,1.584,3.206,3.59,2.212,6.333c-0.896,2.474-1.841,4.952-1.514,7.673c-1.454,1.738-0.886,3.824-0.892,5.764
	c-0.047,14.656-0.174,29.313,0.07,43.964c0.067,4.069-0.902,5.328-5.164,5.306c-34.972-0.182-69.945-0.104-104.918-0.105
	c-2.53-1.756-5.358-0.84-8.077-0.898c-7.302,0.025-14.604,0.052-21.906,0.077c-7.281,1.371-14.638,0.617-21.962,0.788
	c-0.698-0.984-1.396-1.969-2.094-2.954l0.016,0.031c0.064-0.877-0.143-1.621-1.015-2.031l0.015,0.031
	c0.064-0.878-0.143-1.621-1.015-2.031l0.015,0.031c0.064-0.878-0.143-1.621-1.015-2.031l0.015,0.031
	c0.064-0.878-0.143-1.621-1.015-2.031l0.016,0.031c-1.601-3.343,2.292-6.689-0.006-10.032l0.025,0.028
	c-0.318-0.965-0.988-1.301-1.96-1.097l0.03,0.025c-0.022-1.331-0.045-2.662-0.068-3.993l-0.02,0.033
	c0.968-0.362,1.118-1.134,1.019-2.032l-0.019,0.034C12.34,204.26,12.048,203.018,11.958,201.84z M115.67,112.42
	c-3.677-0.695-5.741,0.839-7.838,1.807c-2.214,1.021-4.479,1.808-6.904,2.225C106.417,118.03,110.267,114.511,115.67,112.42z
	 M124.459,108.976c-3.432-1.478-5.529,0.782-7.819,2.57C119.467,111.375,121.737,109.539,124.459,108.976z"/>
<path fill-rule="evenodd" clip-rule="evenodd" fill="#6B79FD" d="M112.617,316.197c-2.696,0.792-2.86,2.839-2.594,5.143
	c0.246,2.127,1.601,2.737,3.489,2.681c1.374-0.041,1.964,1.096,2.806,1.853c16.592,14.925,33.547,29.471,49.678,44.878
	c19.116,18.258,39.042,35.682,57.188,54.951c2.038,2.165,4.223,4.13,6.705,5.873c3.424,2.404,5.62,5.885,7.153,9.915
	c1.736,4.563,2.76,9.618,6.865,12.95c2.065,1.677,0.831,3.041-0.557,3.975c-4.385,2.948-5.502,7.408-6.642,12.191
	c-0.913,3.836-1.083,7.748-3.351,11.552c-2.613,4.383,1.013,8.191,4.709,11.004c0.311,1.46-0.516,2.587-1.118,3.78l0.026-0.024
	c-0.62,0.037-1.04,0.287-1.049,0.979l0.013-0.012c-0.942-0.176-1.66,0.074-1.99,1.055l0.033-0.021
	c-5.014,0.725-10.364-1.297-15.081,1.849c-12.438-0.545-24.449,2.845-36.702,4.022c-2.362,0.228-3.851-0.314-4.553-2.635
	c-0.807-2.667-1.998-5.272-2.395-7.996c-0.614-4.212-2.947-7.265-5.701-10.166c-2.4-2.527-4.72-5.146-7.284-7.497
	c-1.807-1.656-3.965-4.145-5.964-4.142c-5.282,0.008-8.434-1.544-9.229-7.066c-0.242-1.684-2.118-1.492-3.355-1.302
	c-5.179,0.795-9.883-1-13.137-4.425c-5.068-5.337-11.19-5.262-17.605-5.727c-5.021-0.363-10.818,0.703-14.13-4.9
	c0.046-4.496,0.154-8.993,0.104-13.487c-0.016-1.441,0.773-3.681-2.162-3.354c-2.89-0.22-4.688-1.232-3.889-4.657
	c0.587-2.523-0.506-4.769-2.553-6.051c-7.759-4.861-12.923-12.328-19.033-18.81c-2.887-3.063-4.782-6.876-1.341-11.31
	c1.759-2.267,2.38-5.604-0.929-7.201c-7.965-3.842-10.736-11.019-11.921-18.764c-1.1-7.191-4.494-11.705-11.422-13.452
	c-1.974-0.498-1.848-1.815-1.655-2.999c0.979-6.022-1.962-10.379-6.36-13.599c-8.599-6.296-11.021-14.811-10.823-24.956
	c0.154-7.872-3.217-14.596-9.037-20.054c-7.328-6.872-6.589-8.102-2.711-15.638c4.858-9.44,5.897-19.318,3.991-29.721
	c-0.497-2.713-3.319-4.212-2.953-7.112c2.095-4.713,6.3-3.637,10.144-3.812c4.58-0.208,9.29,0.978,13.712-1.139
	c7.329,0.052,14.658,0.103,21.986,0.153c2.53,1.756,5.358,0.84,8.078,0.899c12.658,0.032,25.318,0.209,37.973,0.011
	c3.839-0.061,5.086,0.869,5.042,4.918c-0.218,19.985-0.072,39.976-0.116,59.963C112.957,304.576,112.74,310.387,112.617,316.197z
	 M62.521,349.585c-2.807,0.616-4.758-0.519-5.686,1.886c-0.774,2.006,0.112,3.775,1.344,5.297c0.434,0.535,1.205,1.26,2.101,0.394
	c0.532-0.514,0.885-1.316,0.387-1.729C58.083,353.294,60.403,351.941,62.521,349.585z"/>
<path fill-rule="evenodd" clip-rule="evenodd" fill="#D3B17A" d="M112.617,316.197c0.123-5.811,0.339-11.621,0.353-17.433
	c0.044-19.987-0.102-39.978,0.116-59.963c0.044-4.049-1.203-4.979-5.042-4.918c-12.654,0.198-25.315,0.021-37.973-0.011
	c-0.067-0.297-0.093-0.6-0.08-0.906c34.973,0.001,69.947-0.076,104.918,0.105c4.262,0.021,5.231-1.237,5.164-5.306
	c-0.244-14.651-0.117-29.309-0.07-43.964c0.006-1.94-0.562-4.026,0.892-5.764c0.027,17.146-0.074,34.294,0.18,51.437
	c0.06,3.99-1.404,4.596-4.909,4.567c-18.811-0.152-37.623,0.057-56.432-0.167c-4.384-0.053-5.923,0.867-5.87,5.645
	c0.267,24.136,0.15,48.275,0.054,72.413C113.912,313.33,115.321,315.497,112.617,316.197z"/>
<path fill-rule="evenodd" clip-rule="evenodd" fill="#D3B17A" d="M180.15,93.031c-0.057-27.13-0.227-54.262-0.062-81.391
	c0.027-4.554-1.147-5.769-5.734-5.75C131.074,6.071,87.792,5.985,44.511,6.048c-1.669,0.003-3.689-0.977-5.036,0.986
	c-0.551-0.319-1.351-0.508-1.599-0.983c-0.466-0.894,0.329-1.021,1.012-1.033C39.885,5.001,40.883,5,41.881,5
	c44.575-0.001,89.15,0.07,133.724-0.109c4.5-0.019,5.507,1.261,5.473,5.583c-0.203,25.945-0.088,51.893-0.131,77.839
	C180.944,89.892,181.585,91.661,180.15,93.031z"/>
<path fill-rule="evenodd" clip-rule="evenodd" fill="#757FF2" d="M50.52,18.915c-1.022,1.894,0.177,5.244-2.854,5.67
	c-2.411,0.339-4.897-0.575-6.513-2.845c-1.44-2.025-2.058-3.841,1.428-3.726c1.977,0.064,2.931-1.303,4.31-2.1
	C48.169,16.831,50.033,17.041,50.52,18.915z"/>
<path fill-rule="evenodd" clip-rule="evenodd" fill="#D3B17A" d="M183.781,107.321c-13.932-0.111-27.864-0.225-41.796-0.333
	c-1.794-0.014-3.588-0.002-5.378-1.002c8.058,0,16.115,0,24.174,0c6.141-0.001,12.283,0.06,18.422-0.048
	c1.363-0.023,3.646,1.023,3.543-1.932C184.37,104.711,183.874,106.079,183.781,107.321z"/>
<path fill-rule="evenodd" clip-rule="evenodd" fill="#7B82EA" d="M151.945,483.589c-1.058,0.108-1.858,0.31-2.638,0.247
	c-2.753-0.224-4.447-1.931-5.488-4.316c-0.107-0.247,0.751-1.324,1.105-1.298c2.561,0.195,5.29,0.237,6.361,3.325
	C151.49,482.133,151.669,482.729,151.945,483.589z"/>
<path fill-rule="evenodd" clip-rule="evenodd" fill="#CCAD82" d="M40.007,232.82c-4.422,2.117-9.132,0.932-13.712,1.139
	c-3.844,0.175-8.049-0.901-10.144,3.812c0.824-1.499,0.923-3.125,0.861-4.779c0.345-0.02,0.689-0.039,1.034-0.059
	c7.324-0.171,14.681,0.583,21.962-0.788C40.005,232.37,40.004,232.596,40.007,232.82z"/>
<path fill-rule="evenodd" clip-rule="evenodd" fill="#CAB598" d="M21.052,96.086c1.851,1.862,4.467,1.146,6.63,1.635
	c-0.045,4.133-7.123,1.462-5.74,6.574C19.42,101.803,22.791,98.667,21.052,96.086z"/>
<path fill-rule="evenodd" clip-rule="evenodd" fill="#C4B5AA" d="M218.902,500.768c4.717-3.146,10.067-1.124,15.081-1.849
	C229.158,501.183,224.016,500.853,218.902,500.768z"/>
<path fill-rule="evenodd" clip-rule="evenodd" fill="#CDB28B" d="M50.52,18.915c-0.487-1.874-2.35-2.084-3.629-3.001
	c0.323-0.615,0.646-1.229,0.969-1.845c2.987,0.39,4.746,3.705,8.239,3.251c1.113-0.145,0.929,1.753,0.866,2.856
	C55.365,16.956,52.907,18.118,50.52,18.915z"/>
<path fill-rule="evenodd" clip-rule="evenodd" fill="#D3B17A" d="M96.789,432.094c2.935-0.327,2.146,1.912,2.162,3.354
	c0.051,4.494-0.057,8.991-0.104,13.487c-1.885-3.608-0.43-7.47-0.84-11.193C97.794,435.808,98.463,433.707,96.789,432.094z"/>
<path fill-rule="evenodd" clip-rule="evenodd" fill="#D1BC9B" d="M41.417,357.604c1.805,0.949,4.524,0.646,4.847,3.312
	c0.048,0.398-0.875,1.329-1.313,1.307C42.203,362.082,42.438,359.346,41.417,357.604z"/>
<path fill-rule="evenodd" clip-rule="evenodd" fill="#CBB8A3" d="M11.963,211.98c2.298,3.342-1.595,6.688,0.006,10.032
	C7.42,218.67,12.332,215.324,11.963,211.98z"/>
<path fill-rule="evenodd" clip-rule="evenodd" fill="#CBB8A3" d="M13.958,53.999c1.651,1.679,1.849,3.599,0.941,5.697
	C13.543,57.967,14.035,55.936,13.958,53.999z"/>
<path fill-rule="evenodd" clip-rule="evenodd" fill="#C4B5AA" d="M236.95,496.942c0.603-1.193,1.429-2.32,1.118-3.78
	c0.878,0.085,1.649,0.359,1.327,1.44C239.038,495.803,238.778,497.228,236.95,496.942z"/>
<path fill-rule="evenodd" clip-rule="evenodd" fill="#CBB8A3" d="M9.991,206.944c0.022,1.331,0.045,2.662,0.068,3.993
	C7.127,209.656,7.93,208.311,9.991,206.944z"/>
<path fill-rule="evenodd" clip-rule="evenodd" fill="#CBB8A3" d="M18.046,232.934c-0.345,0.02-0.689,0.039-1.034,0.059
	c-1.148-0.724-1.206-1.832-1.06-3.013C16.65,230.965,17.348,231.949,18.046,232.934z"/>
<path fill-rule="evenodd" clip-rule="evenodd" fill="#CBB8A3" d="M11.958,201.84c0.09,1.178,0.382,2.42-0.987,3.14
	C10.883,203.802,10.771,202.617,11.958,201.84z"/>
<path fill-rule="evenodd" clip-rule="evenodd" fill="#C4B5AA" d="M233.95,498.94c0.33-0.98,1.048-1.23,1.99-1.055
	C235.654,498.948,234.846,499.027,233.95,498.94z"/>
<path fill-rule="evenodd" clip-rule="evenodd" fill="#CBB8A3" d="M12.957,52c0.873,0.409,1.091,1.146,1.014,2.03
	C12.861,53.739,12.86,52.895,12.957,52z"/>
<path fill-rule="evenodd" clip-rule="evenodd" fill="#CBB8A3" d="M9.951,46.005c0.879,0.403,1.096,1.141,1.02,2.026
	C9.862,47.743,9.861,46.896,9.951,46.005z"/>
<path fill-rule="evenodd" clip-rule="evenodd" fill="#CBB8A3" d="M10.958,48c0.873,0.409,1.091,1.146,1.014,2.03
	C10.861,49.74,10.86,48.895,10.958,48z"/>
<path fill-rule="evenodd" clip-rule="evenodd" fill="#CBB8A3" d="M10.99,204.946c0.099,0.897-0.051,1.669-1.019,2.032
	C9.911,206.1,9.875,205.234,10.99,204.946z"/>
<path fill-rule="evenodd" clip-rule="evenodd" fill="#CBB8A3" d="M11.958,50c0.873,0.409,1.09,1.146,1.013,2.03
	C11.861,51.739,11.86,50.895,11.958,50z"/>
<path fill-rule="evenodd" clip-rule="evenodd" fill="#CBB8A3" d="M14.953,227.98c0.872,0.41,1.079,1.153,1.015,2.031
	C14.863,229.717,14.859,228.873,14.953,227.98z"/>
<path fill-rule="evenodd" clip-rule="evenodd" fill="#CBB8A3" d="M13.953,225.98c0.872,0.41,1.079,1.153,1.015,2.031
	C13.863,227.717,13.859,226.873,13.953,225.98z"/>
<path fill-rule="evenodd" clip-rule="evenodd" fill="#CBB8A3" d="M12.953,223.98c0.872,0.41,1.079,1.153,1.015,2.031
	C12.863,225.718,12.859,224.873,12.953,223.98z"/>
<path fill-rule="evenodd" clip-rule="evenodd" fill="#CBB8A3" d="M11.953,221.98c0.872,0.41,1.079,1.153,1.015,2.031
	C11.863,223.718,11.86,222.873,11.953,221.98z"/>
<path fill-rule="evenodd" clip-rule="evenodd" fill="#CBB8A3" d="M10.028,210.912c0.972-0.204,1.642,0.132,1.96,1.097
	C11.045,212.161,10.326,211.914,10.028,210.912z"/>
<path fill-rule="evenodd" clip-rule="evenodd" fill="#CBB8A3" d="M9.03,44.518c0.314,0.506,0.629,1.013,0.944,1.519
	C9.13,45.858,9.028,45.221,9.03,44.518z"/>
<path fill-rule="evenodd" clip-rule="evenodd" fill="#C4B5AA" d="M235.928,497.897c0.009-0.692,0.429-0.942,1.049-0.979
	C236.971,497.612,236.542,497.854,235.928,497.897z"/>
<path fill-rule="evenodd" clip-rule="evenodd" fill="#B4A0A1" d="M115.67,112.42c-5.404,2.09-9.254,5.609-14.742,4.032
	c2.425-0.417,4.69-1.204,6.904-2.225C109.93,113.26,111.993,111.725,115.67,112.42z"/>
<path fill-rule="evenodd" clip-rule="evenodd" fill="#D3B17A" d="M40.007,232.82c-0.002-0.225-0.002-0.45,0.001-0.675
	c7.303-0.025,14.604-0.052,21.907-0.078c0.067,0.299,0.093,0.601,0.079,0.906C54.665,232.923,47.336,232.872,40.007,232.82z"/>
<path fill-rule="evenodd" clip-rule="evenodd" fill="#B4A0A1" d="M124.459,108.976c-2.722,0.563-4.992,2.4-7.819,2.57
	C118.93,109.757,121.027,107.498,124.459,108.976z"/>
<path fill-rule="evenodd" clip-rule="evenodd" fill="#9F95BB" d="M61.993,232.974c0.015-0.306-0.012-0.607-0.079-0.906
	c2.718,0.06,5.546-0.856,8.076,0.899c-0.014,0.306,0.013,0.608,0.08,0.906C67.351,233.813,64.523,234.73,61.993,232.974z"/>
<path fill-rule="evenodd" clip-rule="evenodd" fill="#C5B19D" d="M62.521,349.585c-2.118,2.356-4.438,3.709-1.854,5.848
	c0.498,0.412,0.145,1.215-0.387,1.729c-0.896,0.866-1.667,0.142-2.101-0.394c-1.232-1.521-2.118-3.291-1.344-5.297
	C57.763,349.066,59.714,350.201,62.521,349.585z"/>
</svg>
